# Created by FreeCAD <http://www.freecad.org>
v 10.000000 -0.000000 0.000000
v 9.807853 1.950903 0.000000
v 10.000000 -0.000000 20.000000
v 9.807853 1.950903 20.000000
v 9.238795 3.826834 20.000000
v 9.238795 3.826834 0.000000
v 8.314696 5.555702 0.000000
v 8.314696 5.555702 20.000000
v 7.071068 7.071068 20.000000
v 7.071068 7.071068 0.000000
v 5.555702 8.314696 0.000000
v 5.555702 8.314696 20.000000
v 3.826834 9.238795 0.000000
v 3.826834 9.238795 20.000000
v 1.950903 9.807853 0.000000
v 1.950903 9.807853 20.000000
v 0.000000 10.000000 0.000000
v 0.000000 10.000000 20.000000
v -1.950903 9.807853 0.000000
v -1.950903 9.807853 20.000000
v -3.826834 9.238795 0.000000
v -3.826834 9.238795 20.000000
v -5.555702 8.314696 0.000000
v -5.555702 8.314696 20.000000
v -7.071068 7.071068 0.000000
v -7.071068 7.071068 20.000000
v -8.314696 5.555702 0.000000
v -8.314696 5.555702 20.000000
v -9.238795 3.826834 0.000000
v -9.238795 3.826834 20.000000
v -9.807853 1.950903 0.000000
v -9.807853 1.950903 20.000000
v -10.000000 -0.000000 0.000000
v -10.000000 -0.000000 20.000000
v -9.807853 -1.950903 0.000000
v -9.807853 -1.950903 20.000000
v -9.238795 -3.826834 0.000000
v -9.238795 -3.826834 20.000000
v -8.314696 -5.555702 0.000000
v -8.314696 -5.555702 20.000000
v -7.071068 -7.071068 0.000000
v -7.071068 -7.071068 20.000000
v -5.555702 -8.314696 0.000000
v -5.555702 -8.314696 20.000000
v -3.826834 -9.238795 20.000000
v -3.826834 -9.238795 0.000000
v -1.950903 -9.807853 20.000000
v -1.950903 -9.807853 0.000000
v 0.000000 -10.000000 0.000000
v 0.000000 -10.000000 20.000000
v 1.950903 -9.807853 20.000000
v 1.950903 -9.807853 0.000000
v 3.826834 -9.238795 0.000000
v 3.826834 -9.238795 20.000000
v 5.555702 -8.314696 0.000000
v 5.555702 -8.314696 20.000000
v 7.071068 -7.071068 20.000000
v 7.071068 -7.071068 0.000000
v 8.314696 -5.555702 0.000000
v 8.314696 -5.555702 20.000000
v 9.238795 -3.826834 0.000000
v 9.238795 -3.826834 20.000000
v 9.807853 -1.950903 0.000000
v 9.807853 -1.950903 20.000000
v -3.742554 -3.315613 0.000000
v -2.840324 -4.114919 0.000000
v -4.427280 -2.323616 0.000000
v -1.773024 -4.675081 0.000000
v -4.854709 -1.196578 0.000000
v -0.602683 -4.963544 0.000000
v -5.000000 -0.000000 0.000000
v 0.602683 -4.963544 0.000000
v -4.854709 1.196578 0.000000
v 1.773024 -4.675081 0.000000
v -4.427280 2.323616 0.000000
v 2.840324 -4.114919 0.000000
v -3.742554 3.315613 0.000000
v 3.742554 -3.315613 0.000000
v -2.840324 4.114919 0.000000
v 4.427280 -2.323616 0.000000
v -1.773024 4.675081 0.000000
v 4.854709 -1.196578 0.000000
v -0.602683 4.963544 0.000000
v 5.000000 -0.000000 0.000000
v 0.602683 4.963544 0.000000
v 1.773024 4.675081 0.000000
v 4.854709 1.196578 0.000000
v 4.427280 2.323616 0.000000
v 2.840324 4.114919 0.000000
v 3.742554 3.315613 0.000000
v -3.742554 -3.315613 20.000000
v -2.840324 -4.114919 20.000000
v -4.427280 -2.323616 20.000000
v -1.773024 -4.675081 20.000000
v -4.854709 -1.196578 20.000000
v -0.602683 -4.963544 20.000000
v -5.000000 -0.000000 20.000000
v 0.602683 -4.963544 20.000000
v -4.854709 1.196578 20.000000
v 1.773024 -4.675081 20.000000
v -4.427280 2.323616 20.000000
v 2.840324 -4.114919 20.000000
v -3.742554 3.315613 20.000000
v 3.742554 -3.315613 20.000000
v -2.840324 4.114919 20.000000
v 4.427280 -2.323616 20.000000
v -1.773024 4.675081 20.000000
v 4.854709 -1.196578 20.000000
v -0.602683 4.963544 20.000000
v 5.000000 -0.000000 20.000000
v 0.602683 4.963544 20.000000
v 1.773024 4.675081 20.000000
v 4.854709 1.196578 20.000000
v 4.427280 2.323616 20.000000
v 2.840324 4.114919 20.000000
v 3.742554 3.315613 20.000000
vn 0.995185 0.098017 -0.000000
vn 0.995185 0.098017 0.000000
vn 0.956940 0.290285 0.000000
vn 0.956940 0.290285 0.000000
vn 0.881921 0.471397 0.000000
vn 0.773010 0.634393 0.000000
vn 0.881921 0.471397 -0.000000
vn 0.773010 0.634393 0.000000
vn 0.634393 0.773010 0.000000
vn 0.634393 0.773010 -0.000000
vn 0.471397 0.881921 0.000000
vn 0.471397 0.881921 -0.000000
vn 0.290285 0.956940 0.000000
vn 0.290285 0.956940 -0.000000
vn 0.098017 0.995185 -0.000000
vn 0.098017 0.995185 0.000000
vn -0.098017 0.995185 0.000000
vn -0.098017 0.995185 0.000000
vn -0.290285 0.956940 0.000000
vn -0.290285 0.956940 0.000000
vn -0.471397 0.881921 0.000000
vn -0.471397 0.881921 0.000000
vn -0.634393 0.773010 0.000000
vn -0.634393 0.773010 0.000000
vn -0.773010 0.634393 0.000000
vn -0.773010 0.634393 0.000000
vn -0.881921 0.471397 0.000000
vn -0.881921 0.471397 0.000000
vn -0.956940 0.290285 0.000000
vn -0.956940 0.290285 0.000000
vn -0.995185 0.098017 0.000000
vn -0.995185 0.098017 0.000000
vn -0.995185 -0.098017 0.000000
vn -0.995185 -0.098017 0.000000
vn -0.956940 -0.290285 0.000000
vn -0.956940 -0.290285 0.000000
vn -0.881921 -0.471397 0.000000
vn -0.881921 -0.471397 0.000000
vn -0.773010 -0.634393 0.000000
vn -0.773010 -0.634393 0.000000
vn -0.634393 -0.773010 0.000000
vn -0.471397 -0.881921 -0.000000
vn -0.634393 -0.773010 0.000000
vn -0.290285 -0.956940 -0.000000
vn -0.471397 -0.881921 0.000000
vn -0.290285 -0.956940 0.000000
vn -0.098017 -0.995185 0.000000
vn 0.098017 -0.995185 0.000000
vn -0.098017 -0.995185 0.000000
vn 0.098017 -0.995185 0.000000
vn 0.290285 -0.956940 0.000000
vn 0.290285 -0.956940 0.000000
vn 0.471397 -0.881921 0.000000
vn 0.634393 -0.773010 0.000000
vn 0.471397 -0.881921 0.000000
vn 0.634393 -0.773010 0.000000
vn 0.773010 -0.634393 0.000000
vn 0.773010 -0.634393 0.000000
vn 0.881921 -0.471397 0.000000
vn 0.881921 -0.471397 0.000000
vn 0.956940 -0.290285 0.000000
vn 0.995185 -0.098017 0.000000
vn 0.956940 -0.290285 0.000000
vn 0.995185 -0.098017 0.000000
vn 0.000000 0.000000 -1.000000
vn 0.000000 0.000000 -1.000000
vn 0.000000 0.000000 -1.000000
vn 0.000000 -0.000000 -1.000000
vn 0.000000 0.000000 -1.000000
vn 0.000000 0.000000 -1.000000
vn 0.000000 0.000000 -1.000000
vn 0.000000 -0.000000 -1.000000
vn 0.000000 0.000000 -1.000000
vn 0.000000 0.000000 -1.000000
vn 0.000000 0.000000 -1.000000
vn 0.000000 -0.000000 -1.000000
vn 0.000000 -0.000000 -1.000000
vn 0.000000 0.000000 -1.000000
vn 0.000000 0.000000 -1.000000
vn 0.000000 0.000000 -1.000000
vn 0.000000 0.000000 -1.000000
vn 0.000000 -0.000000 -1.000000
vn 0.000000 0.000000 -1.000000
vn 0.000000 0.000000 -1.000000
vn 0.000000 0.000000 -1.000000
vn 0.000000 0.000000 -1.000000
vn 0.000000 -0.000000 -1.000000
vn 0.000000 0.000000 -1.000000
vn 0.000000 0.000000 -1.000000
vn 0.000000 0.000000 -1.000000
vn 0.000000 0.000000 -1.000000
vn 0.000000 0.000000 -1.000000
vn 0.000000 0.000000 -1.000000
vn 0.000000 0.000000 -1.000000
vn 0.000000 0.000000 -1.000000
vn 0.000000 0.000000 -1.000000
vn 0.000000 -0.000000 -1.000000
vn 0.000000 0.000000 -1.000000
vn 0.000000 0.000000 -1.000000
vn 0.000000 0.000000 -1.000000
vn 0.000000 -0.000000 -1.000000
vn 0.000000 0.000000 -1.000000
vn 0.000000 0.000000 -1.000000
vn 0.000000 -0.000000 -1.000000
vn 0.000000 0.000000 -1.000000
vn 0.000000 0.000000 -1.000000
vn 0.000000 0.000000 -1.000000
vn 0.000000 0.000000 -1.000000
vn 0.000000 0.000000 -1.000000
vn 0.000000 0.000000 -1.000000
vn 0.000000 0.000000 -1.000000
vn 0.000000 0.000000 -1.000000
vn 0.000000 0.000000 -1.000000
vn 0.000000 0.000000 -1.000000
vn 0.000000 0.000000 -1.000000
vn 0.000000 -0.000000 -1.000000
vn 0.000000 0.000000 -1.000000
vn 0.000000 0.000000 -1.000000
vn 0.000000 -0.000000 -1.000000
vn 0.000000 0.000000 -1.000000
vn 0.000000 0.000000 -1.000000
vn 0.000000 -0.000000 -1.000000
vn 0.000000 0.000000 1.000000
vn 0.000000 0.000000 1.000000
vn 0.000000 0.000000 1.000000
vn 0.000000 0.000000 1.000000
vn 0.000000 0.000000 1.000000
vn 0.000000 0.000000 1.000000
vn 0.000000 0.000000 1.000000
vn 0.000000 0.000000 1.000000
vn 0.000000 0.000000 1.000000
vn 0.000000 0.000000 1.000000
vn 0.000000 0.000000 1.000000
vn 0.000000 0.000000 1.000000
vn 0.000000 0.000000 1.000000
vn 0.000000 0.000000 1.000000
vn 0.000000 0.000000 1.000000
vn 0.000000 0.000000 1.000000
vn 0.000000 0.000000 1.000000
vn 0.000000 0.000000 1.000000
vn 0.000000 0.000000 1.000000
vn 0.000000 0.000000 1.000000
vn 0.000000 0.000000 1.000000
vn 0.000000 0.000000 1.000000
vn 0.000000 0.000000 1.000000
vn 0.000000 0.000000 1.000000
vn 0.000000 0.000000 1.000000
vn 0.000000 0.000000 1.000000
vn 0.000000 0.000000 1.000000
vn 0.000000 0.000000 1.000000
vn 0.000000 0.000000 1.000000
vn 0.000000 0.000000 1.000000
vn 0.000000 0.000000 1.000000
vn 0.000000 0.000000 1.000000
vn 0.000000 0.000000 1.000000
vn 0.000000 0.000000 1.000000
vn 0.000000 0.000000 1.000000
vn 0.000000 0.000000 1.000000
vn 0.000000 0.000000 1.000000
vn 0.000000 0.000000 1.000000
vn 0.000000 0.000000 1.000000
vn 0.000000 0.000000 1.000000
vn 0.000000 0.000000 1.000000
vn 0.000000 0.000000 1.000000
vn 0.000000 0.000000 1.000000
vn 0.000000 0.000000 1.000000
vn 0.000000 0.000000 1.000000
vn 0.000000 0.000000 1.000000
vn 0.000000 0.000000 1.000000
vn 0.000000 0.000000 1.000000
vn 0.000000 0.000000 1.000000
vn 0.000000 0.000000 1.000000
vn 0.000000 0.000000 1.000000
vn 0.000000 0.000000 1.000000
vn 0.000000 0.000000 1.000000
vn 0.000000 0.000000 1.000000
vn 0.000000 0.000000 1.000000
vn 0.000000 0.000000 1.000000
vn 0.000000 0.000000 1.000000
vn 0.000000 0.000000 1.000000
vn -0.992709 -0.120537 0.000000
vn -0.992709 -0.120537 0.000000
vn -0.822984 -0.568065 0.000000
vn -0.935016 -0.354605 0.000000
vn -0.935016 -0.354605 0.000000
vn -0.822984 -0.568065 0.000000
vn -0.663123 -0.748511 0.000000
vn -0.663123 -0.748511 0.000000
vn -0.464723 -0.885456 0.000000
vn -0.464723 -0.885456 0.000000
vn 0.000000 -1.000000 0.000000
vn -0.239316 -0.970942 0.000000
vn -0.239316 -0.970942 0.000000
vn 0.000000 -1.000000 0.000000
vn 0.239316 -0.970942 0.000000
vn 0.239316 -0.970942 0.000000
vn 0.464723 -0.885456 0.000000
vn 0.464723 -0.885456 0.000000
vn 0.663123 -0.748511 0.000000
vn 0.663123 -0.748511 0.000000
vn 0.822984 -0.568065 0.000000
vn 0.935016 -0.354605 0.000000
vn 0.822984 -0.568065 0.000000
vn 0.935016 -0.354605 0.000000
vn 0.992709 -0.120537 0.000000
vn 0.992709 -0.120537 0.000000
vn 0.992709 0.120537 0.000000
vn 0.935016 0.354605 -0.000000
vn 0.992709 0.120537 -0.000000
vn 0.935016 0.354605 -0.000000
vn 0.822984 0.568065 0.000000
vn 0.822984 0.568065 -0.000000
vn 0.663123 0.748511 0.000000
vn 0.464723 0.885456 -0.000000
vn 0.663123 0.748511 -0.000000
vn 0.464723 0.885456 -0.000000
vn 0.239316 0.970942 0.000000
vn 0.239316 0.970942 -0.000000
vn -0.239316 0.970942 0.000000
vn 0.000000 1.000000 -0.000000
vn 0.000000 1.000000 0.000000
vn -0.464723 0.885456 0.000000
vn -0.239316 0.970942 0.000000
vn -0.663123 0.748511 0.000000
vn -0.464723 0.885456 0.000000
vn -0.663123 0.748511 0.000000
vn -0.935016 0.354605 0.000000
vn -0.822984 0.568065 0.000000
vn -0.822984 0.568065 0.000000
vn -0.935016 0.354605 0.000000
vn -0.992709 0.120537 0.000000
vn -0.992709 0.120537 0.000000
f 1//1 2//1 3//1
f 3//2 2//2 4//2
f 4//3 2//3 5//3
f 2//4 6//4 5//4
f 5//5 7//5 8//5
f 8//6 7//6 9//6
f 6//7 7//7 5//7
f 7//8 10//8 9//8
f 9//9 11//9 12//9
f 10//10 11//10 9//10
f 12//11 13//11 14//11
f 11//12 13//12 12//12
f 14//13 15//13 16//13
f 13//14 15//14 14//14
f 15//15 17//15 16//15
f 16//16 17//16 18//16
f 17//17 19//17 18//17
f 18//18 19//18 20//18
f 20//19 21//19 22//19
f 19//20 21//20 20//20
f 22//21 23//21 24//21
f 21//22 23//22 22//22
f 24//23 25//23 26//23
f 23//24 25//24 24//24
f 26//25 27//25 28//25
f 25//26 27//26 26//26
f 28//27 29//27 30//27
f 27//28 29//28 28//28
f 30//29 31//29 32//29
f 29//30 31//30 30//30
f 32//31 33//31 34//31
f 31//32 33//32 32//32
f 34//33 35//33 36//33
f 33//34 35//34 34//34
f 36//35 37//35 38//35
f 35//36 37//36 36//36
f 38//37 39//37 40//37
f 37//38 39//38 38//38
f 40//39 41//39 42//39
f 39//40 41//40 40//40
f 42//41 43//41 44//41
f 44//42 43//42 45//42
f 41//43 43//43 42//43
f 45//44 46//44 47//44
f 43//45 46//45 45//45
f 46//46 48//46 47//46
f 47//47 49//47 50//47
f 50//48 49//48 51//48
f 48//49 49//49 47//49
f 49//50 52//50 51//50
f 51//51 53//51 54//51
f 52//52 53//52 51//52
f 54//53 55//53 56//53
f 56//54 55//54 57//54
f 53//55 55//55 54//55
f 55//56 58//56 57//56
f 57//57 59//57 60//57
f 58//58 59//58 57//58
f 60//59 61//59 62//59
f 59//60 61//60 60//60
f 62//61 63//61 64//61
f 64//62 63//62 3//62
f 61//63 63//63 62//63
f 63//64 1//64 3//64
f 39//65 65//65 41//65
f 41//66 66//66 43//66
f 43//67 66//67 46//67
f 65//68 66//68 41//68
f 37//69 67//69 39//69
f 39//70 67//70 65//70
f 46//71 68//71 48//71
f 66//72 68//72 46//72
f 35//73 69//73 37//73
f 37//74 69//74 67//74
f 48//75 70//75 49//75
f 68//76 70//76 48//76
f 31//77 71//77 33//77
f 33//78 71//78 35//78
f 35//79 71//79 69//79
f 49//80 72//80 52//80
f 70//81 72//81 49//81
f 29//82 73//82 31//82
f 31//83 73//83 71//83
f 52//84 74//84 53//84
f 72//85 74//85 52//85
f 29//86 75//86 73//86
f 27//87 75//87 29//87
f 74//88 76//88 53//88
f 53//89 76//89 55//89
f 27//90 77//90 75//90
f 27//91 25//91 77//91
f 76//92 58//92 55//92
f 76//93 78//93 58//93
f 25//94 79//94 77//94
f 25//95 23//95 79//95
f 78//96 59//96 58//96
f 80//97 59//97 78//97
f 23//98 21//98 79//98
f 79//99 21//99 81//99
f 80//100 61//100 59//100
f 82//101 61//101 80//101
f 21//102 19//102 81//102
f 81//103 19//103 83//103
f 84//104 63//104 82//104
f 82//105 63//105 61//105
f 84//106 1//106 63//106
f 19//107 17//107 83//107
f 83//108 17//108 85//108
f 85//109 15//109 86//109
f 17//110 15//110 85//110
f 84//111 2//111 1//111
f 87//112 2//112 84//112
f 88//113 6//113 87//113
f 87//114 6//114 2//114
f 86//115 13//115 89//115
f 15//116 13//116 86//116
f 88//117 7//117 6//117
f 90//118 7//118 88//118
f 13//119 11//119 89//119
f 89//120 10//120 90//120
f 90//121 10//121 7//121
f 11//122 10//122 89//122
f 91//123 40//123 42//123
f 92//124 42//124 44//124
f 92//125 44//125 45//125
f 92//126 91//126 42//126
f 93//127 38//127 40//127
f 93//128 40//128 91//128
f 94//129 45//129 47//129
f 94//130 92//130 45//130
f 95//131 36//131 38//131
f 95//132 38//132 93//132
f 96//133 47//133 50//133
f 96//134 94//134 47//134
f 97//135 32//135 34//135
f 97//136 34//136 36//136
f 97//137 36//137 95//137
f 98//138 50//138 51//138
f 98//139 96//139 50//139
f 99//140 30//140 32//140
f 99//141 32//141 97//141
f 100//142 51//142 54//142
f 100//143 98//143 51//143
f 101//144 30//144 99//144
f 101//145 28//145 30//145
f 102//146 100//146 54//146
f 102//147 54//147 56//147
f 103//148 28//148 101//148
f 26//149 28//149 103//149
f 57//150 102//150 56//150
f 104//151 102//151 57//151
f 105//152 26//152 103//152
f 24//153 26//153 105//153
f 60//154 104//154 57//154
f 60//155 106//155 104//155
f 22//156 24//156 105//156
f 22//157 105//157 107//157
f 62//158 106//158 60//158
f 62//159 108//159 106//159
f 20//160 22//160 107//160
f 20//161 107//161 109//161
f 64//162 110//162 108//162
f 64//163 108//163 62//163
f 3//164 110//164 64//164
f 18//165 20//165 109//165
f 18//166 109//166 111//166
f 16//167 111//167 112//167
f 16//168 18//168 111//168
f 4//169 110//169 3//169
f 4//170 113//170 110//170
f 5//171 114//171 113//171
f 5//172 113//172 4//172
f 14//173 112//173 115//173
f 14//174 16//174 112//174
f 8//175 114//175 5//175
f 8//176 116//176 114//176
f 12//177 14//177 115//177
f 9//178 115//178 116//178
f 9//179 116//179 8//179
f 9//180 12//180 115//180
f 87//181 84//181 110//181
f 87//182 110//182 113//182
f 88//183 114//183 116//183
f 88//184 113//184 114//184
f 88//185 87//185 113//185
f 90//186 88//186 116//186
f 89//187 116//187 115//187
f 89//188 90//188 116//188
f 86//189 115//189 112//189
f 86//190 89//190 115//190
f 85//191 111//191 109//191
f 85//192 112//192 111//192
f 85//193 86//193 112//193
f 83//194 85//194 109//194
f 81//195 109//195 107//195
f 81//196 83//196 109//196
f 79//197 107//197 105//197
f 79//198 81//198 107//198
f 77//199 105//199 103//199
f 77//200 79//200 105//200
f 75//201 77//201 103//201
f 75//202 101//202 99//202
f 75//203 103//203 101//203
f 73//204 75//204 99//204
f 73//205 99//205 97//205
f 71//206 73//206 97//206
f 69//207 71//207 97//207
f 69//208 95//208 93//208
f 69//209 97//209 95//209
f 67//210 69//210 93//210
f 65//211 67//211 93//211
f 65//212 93//212 91//212
f 66//213 65//213 91//213
f 66//214 92//214 94//214
f 66//215 91//215 92//215
f 68//216 66//216 94//216
f 70//217 68//217 94//217
f 70//218 94//218 96//218
f 72//219 98//219 100//219
f 72//220 96//220 98//220
f 72//221 70//221 96//221
f 74//222 100//222 102//222
f 74//223 72//223 100//223
f 76//224 102//224 104//224
f 76//225 74//225 102//225
f 78//226 76//226 104//226
f 80//227 106//227 108//227
f 80//228 104//228 106//228
f 80//229 78//229 104//229
f 82//230 80//230 108//230
f 84//231 108//231 110//231
f 84//232 82//232 108//232
